<?xml version="1.0" encoding="utf-8" standalone="yes"?>
<!DOCTYPE svg PUBLIC "-//W3C//DTD SVG 1.1//EN" "http://www.w3.org/Graphics/SVG/1.1/DTD/svg11.dtd">
<svg xmlns:xlink="http://www.w3.org/1999/xlink" viewBox="0 0 2828 327" class="barcode-canvas" version="1.1" style="shape-rendering:crispEdges;" xmlns="http://www.w3.org/2000/svg">
  <g text-rendering="geometricPrecision">
    <rect x="0" y="0" width="2828" height="327" fill="#ffffff" />
    <rect x="7" y="7" width="10" height="242" fill="#000000" />
    <rect x="22" y="7" width="5" height="242" fill="#000000" />
    <rect x="37" y="7" width="5" height="242" fill="#000000" />
    <rect x="62" y="7" width="15" height="242" fill="#000000" />
    <rect x="82" y="7" width="5" height="242" fill="#000000" />
    <rect x="97" y="7" width="10" height="242" fill="#000000" />
    <rect x="117" y="7" width="10" height="242" fill="#000000" />
    <rect x="137" y="7" width="15" height="242" fill="#000000" />
    <rect x="162" y="7" width="5" height="242" fill="#000000" />
    <rect x="172" y="7" width="10" height="242" fill="#000000" />
    <rect x="187" y="7" width="10" height="242" fill="#000000" />
    <rect x="207" y="7" width="10" height="242" fill="#000000" />
    <rect x="227" y="7" width="5" height="242" fill="#000000" />
    <rect x="242" y="7" width="15" height="242" fill="#000000" />
    <rect x="267" y="7" width="10" height="242" fill="#000000" />
    <rect x="282" y="7" width="5" height="242" fill="#000000" />
    <rect x="297" y="7" width="15" height="242" fill="#000000" />
    <rect x="322" y="7" width="10" height="242" fill="#000000" />
    <rect x="337" y="7" width="5" height="242" fill="#000000" />
    <rect x="352" y="7" width="15" height="242" fill="#000000" />
    <rect x="377" y="7" width="10" height="242" fill="#000000" />
    <rect x="392" y="7" width="10" height="242" fill="#000000" />
    <rect x="407" y="7" width="10" height="242" fill="#000000" />
    <rect x="427" y="7" width="10" height="242" fill="#000000" />
    <rect x="447" y="7" width="5" height="242" fill="#000000" />
    <rect x="462" y="7" width="15" height="242" fill="#000000" />
    <rect x="487" y="7" width="10" height="242" fill="#000000" />
    <rect x="502" y="7" width="5" height="242" fill="#000000" />
    <rect x="517" y="7" width="15" height="242" fill="#000000" />
    <rect x="542" y="7" width="10" height="242" fill="#000000" />
    <rect x="557" y="7" width="10" height="242" fill="#000000" />
    <rect x="572" y="7" width="15" height="242" fill="#000000" />
    <rect x="597" y="7" width="5" height="242" fill="#000000" />
    <rect x="612" y="7" width="10" height="242" fill="#000000" />
    <rect x="627" y="7" width="10" height="242" fill="#000000" />
    <rect x="647" y="7" width="10" height="242" fill="#000000" />
    <rect x="667" y="7" width="5" height="242" fill="#000000" />
    <rect x="682" y="7" width="15" height="242" fill="#000000" />
    <rect x="707" y="7" width="10" height="242" fill="#000000" />
    <rect x="722" y="7" width="5" height="242" fill="#000000" />
    <rect x="737" y="7" width="15" height="242" fill="#000000" />
    <rect x="757" y="7" width="10" height="242" fill="#000000" />
    <rect x="777" y="7" width="10" height="242" fill="#000000" />
    <rect x="797" y="7" width="5" height="242" fill="#000000" />
    <rect x="812" y="7" width="15" height="242" fill="#000000" />
    <rect x="832" y="7" width="10" height="242" fill="#000000" />
    <rect x="847" y="7" width="10" height="242" fill="#000000" />
    <rect x="867" y="7" width="10" height="242" fill="#000000" />
    <rect x="887" y="7" width="15" height="242" fill="#000000" />
    <rect x="912" y="7" width="5" height="242" fill="#000000" />
    <rect x="922" y="7" width="10" height="242" fill="#000000" />
    <rect x="942" y="7" width="15" height="242" fill="#000000" />
    <rect x="962" y="7" width="10" height="242" fill="#000000" />
    <rect x="977" y="7" width="15" height="242" fill="#000000" />
    <rect x="997" y="7" width="10" height="242" fill="#000000" />
    <rect x="1012" y="7" width="10" height="242" fill="#000000" />
    <rect x="1032" y="7" width="10" height="242" fill="#000000" />
    <rect x="1052" y="7" width="5" height="242" fill="#000000" />
    <rect x="1067" y="7" width="15" height="242" fill="#000000" />
    <rect x="1092" y="7" width="10" height="242" fill="#000000" />
    <rect x="1107" y="7" width="5" height="242" fill="#000000" />
    <rect x="1122" y="7" width="15" height="242" fill="#000000" />
    <rect x="1147" y="7" width="10" height="242" fill="#000000" />
    <rect x="1162" y="7" width="5" height="242" fill="#000000" />
    <rect x="1177" y="7" width="15" height="242" fill="#000000" />
    <rect x="1197" y="7" width="10" height="242" fill="#000000" />
    <rect x="1217" y="7" width="10" height="242" fill="#000000" />
    <rect x="1232" y="7" width="10" height="242" fill="#000000" />
    <rect x="1252" y="7" width="10" height="242" fill="#000000" />
    <rect x="1272" y="7" width="10" height="242" fill="#000000" />
    <rect x="1292" y="7" width="5" height="242" fill="#000000" />
    <rect x="1302" y="7" width="15" height="242" fill="#000000" />
    <rect x="1327" y="7" width="10" height="242" fill="#000000" />
    <rect x="1347" y="7" width="15" height="242" fill="#000000" />
    <rect x="1372" y="7" width="5" height="242" fill="#000000" />
    <rect x="1382" y="7" width="10" height="242" fill="#000000" />
    <rect x="1397" y="7" width="10" height="242" fill="#000000" />
    <rect x="1417" y="7" width="10" height="242" fill="#000000" />
    <rect x="1437" y="7" width="15" height="242" fill="#000000" />
    <rect x="1457" y="7" width="10" height="242" fill="#000000" />
    <rect x="1472" y="7" width="15" height="242" fill="#000000" />
    <rect x="1492" y="7" width="10" height="242" fill="#000000" />
    <rect x="1512" y="7" width="15" height="242" fill="#000000" />
    <rect x="1532" y="7" width="5" height="242" fill="#000000" />
    <rect x="1547" y="7" width="10" height="242" fill="#000000" />
    <rect x="1562" y="7" width="10" height="242" fill="#000000" />
    <rect x="1582" y="7" width="10" height="242" fill="#000000" />
    <rect x="1602" y="7" width="5" height="242" fill="#000000" />
    <rect x="1617" y="7" width="15" height="242" fill="#000000" />
    <rect x="1642" y="7" width="10" height="242" fill="#000000" />
    <rect x="1657" y="7" width="5" height="242" fill="#000000" />
    <rect x="1672" y="7" width="15" height="242" fill="#000000" />
    <rect x="1692" y="7" width="10" height="242" fill="#000000" />
    <rect x="1712" y="7" width="10" height="242" fill="#000000" />
    <rect x="1727" y="7" width="15" height="242" fill="#000000" />
    <rect x="1752" y="7" width="5" height="242" fill="#000000" />
    <rect x="1767" y="7" width="10" height="242" fill="#000000" />
    <rect x="1782" y="7" width="10" height="242" fill="#000000" />
    <rect x="1802" y="7" width="10" height="242" fill="#000000" />
    <rect x="1822" y="7" width="5" height="242" fill="#000000" />
    <rect x="1837" y="7" width="15" height="242" fill="#000000" />
    <rect x="1862" y="7" width="10" height="242" fill="#000000" />
    <rect x="1877" y="7" width="5" height="242" fill="#000000" />
    <rect x="1892" y="7" width="15" height="242" fill="#000000" />
    <rect x="1912" y="7" width="10" height="242" fill="#000000" />
    <rect x="1932" y="7" width="15" height="242" fill="#000000" />
    <rect x="1957" y="7" width="5" height="242" fill="#000000" />
    <rect x="1967" y="7" width="10" height="242" fill="#000000" />
    <rect x="1987" y="7" width="10" height="242" fill="#000000" />
    <rect x="2002" y="7" width="10" height="242" fill="#000000" />
    <rect x="2022" y="7" width="10" height="242" fill="#000000" />
    <rect x="2042" y="7" width="15" height="242" fill="#000000" />
    <rect x="2067" y="7" width="5" height="242" fill="#000000" />
    <rect x="2077" y="7" width="10" height="242" fill="#000000" />
    <rect x="2097" y="7" width="15" height="242" fill="#000000" />
    <rect x="2117" y="7" width="5" height="242" fill="#000000" />
    <rect x="2132" y="7" width="10" height="242" fill="#000000" />
    <rect x="2152" y="7" width="10" height="242" fill="#000000" />
    <rect x="2167" y="7" width="10" height="242" fill="#000000" />
    <rect x="2187" y="7" width="10" height="242" fill="#000000" />
    <rect x="2207" y="7" width="5" height="242" fill="#000000" />
    <rect x="2222" y="7" width="15" height="242" fill="#000000" />
    <rect x="2247" y="7" width="10" height="242" fill="#000000" />
    <rect x="2262" y="7" width="5" height="242" fill="#000000" />
    <rect x="2277" y="7" width="15" height="242" fill="#000000" />
    <rect x="2302" y="7" width="10" height="242" fill="#000000" />
    <rect x="2317" y="7" width="15" height="242" fill="#000000" />
    <rect x="2337" y="7" width="10" height="242" fill="#000000" />
    <rect x="2352" y="7" width="15" height="242" fill="#000000" />
    <rect x="2372" y="7" width="10" height="242" fill="#000000" />
    <rect x="2387" y="7" width="10" height="242" fill="#000000" />
    <rect x="2407" y="7" width="10" height="242" fill="#000000" />
    <rect x="2427" y="7" width="5" height="242" fill="#000000" />
    <rect x="2442" y="7" width="15" height="242" fill="#000000" />
    <rect x="2467" y="7" width="10" height="242" fill="#000000" />
    <rect x="2482" y="7" width="10" height="242" fill="#000000" />
    <rect x="2502" y="7" width="5" height="242" fill="#000000" />
    <rect x="2512" y="7" width="15" height="242" fill="#000000" />
    <rect x="2537" y="7" width="10" height="242" fill="#000000" />
    <rect x="2552" y="7" width="10" height="242" fill="#000000" />
    <rect x="2572" y="7" width="10" height="242" fill="#000000" />
    <rect x="2592" y="7" width="5" height="242" fill="#000000" />
    <rect x="2607" y="7" width="15" height="242" fill="#000000" />
    <rect x="2632" y="7" width="10" height="242" fill="#000000" />
    <rect x="2647" y="7" width="5" height="242" fill="#000000" />
    <rect x="2662" y="7" width="15" height="242" fill="#000000" />
    <rect x="2682" y="7" width="10" height="242" fill="#000000" />
    <rect x="2702" y="7" width="5" height="242" fill="#000000" />
    <rect x="2722" y="7" width="10" height="242" fill="#000000" />
    <rect x="2747" y="7" width="5" height="242" fill="#000000" />
    <rect x="2757" y="7" width="10" height="242" fill="#000000" />
    <rect x="2782" y="7" width="15" height="242" fill="#000000" />
    <rect x="2802" y="7" width="5" height="242" fill="#000000" />
    <rect x="2812" y="7" width="10" height="242" fill="#000000" />
    <g transform="translate(865, 252)">
      <path d="M 20.332 15.513 C 22.192 15.513 23.84 15.806 25.276 16.392 C 26.711 16.978 27.836 17.838 28.649 18.973 C 29.462 20.109 29.868 21.504 29.868 23.159 C 29.868 24.463 29.586 25.602 29.022 26.576 C 28.458 27.55 27.7 28.4 26.748 29.125 C 25.796 29.85 24.741 30.498 23.584 31.069 C 24.961 31.699 26.202 32.41 27.308 33.201 C 28.414 33.992 29.29 34.922 29.934 35.991 C 30.579 37.061 30.901 38.328 30.901 39.792 C 30.901 41.594 30.465 43.151 29.594 44.462 C 28.722 45.773 27.502 46.78 25.935 47.483 C 24.368 48.186 22.529 48.538 20.42 48.538 C 18.149 48.538 16.219 48.197 14.63 47.516 C 13.041 46.835 11.832 45.853 11.005 44.572 C 10.177 43.29 9.763 41.748 9.763 39.946 C 9.763 38.467 10.078 37.181 10.708 36.09 C 11.338 34.999 12.173 34.058 13.213 33.267 C 14.253 32.476 15.388 31.809 16.619 31.267 C 15.549 30.681 14.572 30.015 13.685 29.268 C 12.799 28.521 12.096 27.645 11.576 26.642 C 11.056 25.638 10.796 24.47 10.796 23.137 C 10.796 21.511 11.21 20.131 12.037 18.995 C 12.865 17.86 14 16.996 15.443 16.403 C 16.886 15.809 18.516 15.513 20.332 15.513 Z M 13.345 39.968 C 13.345 43.25 15.645 45.615 20.332 45.615 C 24.785 45.615 27.319 43.293 27.319 39.836 C 27.319 38.767 27.041 37.826 26.484 37.013 C 25.928 36.2 25.137 35.471 24.111 34.827 C 23.086 34.182 21.877 33.596 20.486 33.069 L 19.695 32.783 C 18.347 33.34 17.201 33.959 16.256 34.64 C 15.311 35.321 14.59 36.094 14.092 36.958 C 13.594 37.822 13.345 38.826 13.345 39.968 Z M 20.288 18.501 C 16.831 18.501 14.399 20.208 14.399 23.313 C 14.399 24.426 14.667 25.367 15.201 26.136 C 15.736 26.906 16.465 27.565 17.388 28.114 C 18.311 28.663 19.343 29.172 20.486 29.641 C 21.599 29.172 22.588 28.656 23.452 28.092 C 24.316 27.528 24.998 26.858 25.496 26.082 C 25.994 25.305 26.243 24.375 26.243 23.291 C 26.243 20.186 23.862 18.501 20.288 18.501 Z M 57.271 48.098 L 36.221 48.098 L 36.221 45.044 L 44.812 36.321 C 46.409 34.709 47.753 33.274 48.844 32.014 C 49.936 30.754 50.767 29.513 51.338 28.29 C 51.91 27.067 52.195 25.723 52.195 24.258 C 52.195 20.625 49.844 18.655 46.329 18.655 C 43.252 18.655 41.084 19.753 38.594 21.687 L 36.639 19.226 C 37.488 18.508 38.415 17.871 39.418 17.314 C 40.422 16.758 41.498 16.318 42.648 15.996 C 43.798 15.674 45.025 15.513 46.329 15.513 C 48.306 15.513 50.013 15.857 51.448 16.545 C 52.884 17.234 53.993 18.215 54.777 19.49 C 55.561 20.764 55.953 22.28 55.953 24.038 C 55.953 25.737 55.616 27.316 54.942 28.773 C 54.268 30.231 53.323 31.674 52.107 33.102 C 50.892 34.53 49.471 36.042 47.845 37.639 L 40.857 44.604 L 40.857 44.758 L 57.271 44.758 Z M 88.342 48.098 L 84.783 48.098 L 84.783 25.334 C 84.783 24.47 84.786 23.727 84.794 23.104 C 84.801 22.482 84.816 21.91 84.838 21.39 C 84.86 20.87 84.893 20.339 84.936 19.797 C 84.028 20.735 83.362 21.248 82.19 22.214 L 78.52 25.159 L 76.609 22.676 L 85.31 15.974 L 88.342 15.974 Z M 114.844 48.098 L 111.285 48.098 L 111.285 25.334 C 111.285 24.47 111.288 23.727 111.296 23.104 C 111.303 22.482 111.317 21.91 111.339 21.39 C 111.361 20.87 111.394 20.339 111.438 19.797 C 110.53 20.735 109.864 21.248 108.692 22.214 L 105.022 25.159 L 103.111 22.676 L 111.812 15.974 L 114.844 15.974 Z M 141.346 48.098 L 137.786 48.098 L 137.786 25.334 C 137.786 24.47 137.79 23.727 137.797 23.104 C 137.805 22.482 137.819 21.91 137.841 21.39 C 137.863 20.87 137.896 20.339 137.94 19.797 C 137.032 20.735 136.366 21.248 135.194 22.214 L 131.524 25.159 L 129.613 22.676 L 138.314 15.974 L 141.346 15.974 Z M 179.888 48.098 L 176.328 48.098 L 176.328 25.334 C 176.328 24.47 176.332 23.727 176.339 23.104 C 176.347 22.482 176.361 21.91 176.383 21.39 C 176.405 20.87 176.438 20.339 176.482 19.797 C 175.574 20.735 174.908 21.248 173.736 22.214 L 170.066 25.159 L 168.155 22.676 L 176.856 15.974 L 179.888 15.974 Z M 206.39 48.098 L 202.83 48.098 L 202.83 25.334 C 202.83 24.47 202.834 23.727 202.841 23.104 C 202.849 22.482 202.863 21.91 202.885 21.39 C 202.907 20.87 202.94 20.339 202.984 19.797 C 202.076 20.735 201.409 21.248 200.238 22.214 L 196.568 25.159 L 194.656 22.676 L 203.358 15.974 L 206.39 15.974 Z M 229.464 28.455 C 231.647 28.455 233.544 28.824 235.155 29.564 C 236.766 30.304 238.015 31.377 238.901 32.783 C 239.788 34.189 240.231 35.896 240.231 37.903 C 240.231 40.1 239.755 41.993 238.802 43.583 C 237.85 45.172 236.481 46.395 234.694 47.252 C 232.906 48.109 230.768 48.538 228.277 48.538 C 224.938 48.538 221.957 47.952 219.994 46.78 L 219.994 43.308 C 222.132 44.597 225.45 45.417 228.321 45.417 C 229.947 45.417 231.372 45.157 232.595 44.637 C 233.818 44.117 234.77 43.326 235.452 42.264 C 236.133 41.202 236.473 39.866 236.473 38.254 C 236.473 33.977 233.954 31.553 228.299 31.553 C 226.483 31.553 224.037 31.904 222.631 32.256 L 220.785 31.047 L 222.015 15.974 L 237.989 15.974 L 237.989 19.314 L 225.135 19.314 L 224.322 29.004 C 225.436 28.77 227.237 28.455 229.464 28.455 Z M 271.434 48.098 L 267.874 48.098 L 267.874 25.334 C 267.874 24.47 267.878 23.727 267.885 23.104 C 267.893 22.482 267.907 21.91 267.929 21.39 C 267.951 20.87 267.984 20.339 268.028 19.797 C 267.12 20.735 266.453 21.248 265.281 22.214 L 261.612 25.159 L 259.7 22.676 L 268.402 15.974 L 271.434 15.974 Z M 305.582 31.992 C 305.582 34.6 305.384 36.929 304.989 38.979 C 304.593 41.03 303.971 42.766 303.121 44.187 C 302.272 45.608 301.173 46.688 299.825 47.428 C 298.478 48.168 296.859 48.538 294.969 48.538 C 292.582 48.538 290.608 47.886 289.048 46.582 C 287.488 45.278 286.323 43.392 285.554 40.924 C 284.785 38.456 284.4 35.479 284.4 31.992 C 284.4 28.564 284.748 25.616 285.444 23.148 C 286.14 20.68 287.264 18.783 288.817 17.457 C 290.37 16.132 292.421 15.469 294.969 15.469 C 297.386 15.469 299.379 16.124 300.946 17.435 C 302.513 18.746 303.678 20.636 304.44 23.104 C 305.201 25.573 305.582 28.535 305.582 31.992 Z M 288.07 31.992 C 288.07 34.98 288.297 37.471 288.751 39.463 C 289.205 41.455 289.941 42.946 290.959 43.934 C 291.977 44.923 293.314 45.417 294.969 45.417 C 296.625 45.417 297.961 44.927 298.979 43.945 C 299.997 42.964 300.737 41.477 301.199 39.485 C 301.66 37.493 301.891 34.995 301.891 31.992 C 301.891 29.048 301.664 26.583 301.21 24.598 C 300.755 22.614 300.023 21.119 299.012 20.116 C 298.002 19.113 296.654 18.611 294.969 18.611 C 293.285 18.611 291.937 19.113 290.926 20.116 C 289.916 21.119 289.187 22.614 288.74 24.598 C 288.293 26.583 288.07 29.048 288.07 31.992 Z M 333.512 40.649 L 328.7 40.649 L 328.7 48.098 L 325.141 48.098 L 325.141 40.649 L 309.606 40.649 L 309.606 37.573 L 324.899 15.798 L 328.7 15.798 L 328.7 37.354 L 333.512 37.354 Z M 325.141 37.354 L 325.141 26.851 C 325.141 26.045 325.148 25.316 325.163 24.664 C 325.177 24.012 325.199 23.405 325.229 22.841 C 325.258 22.277 325.283 21.738 325.305 21.226 C 325.327 20.713 325.346 20.208 325.36 19.709 L 325.185 19.709 C 324.628 20.881 323.874 22.288 323.141 23.313 L 313.231 37.354 Z M 370.494 29.663 C 370.494 31.611 370.359 33.508 370.088 35.354 C 369.817 37.2 369.355 38.921 368.703 40.518 C 368.052 42.114 367.169 43.513 366.056 44.714 C 364.942 45.916 363.547 46.857 361.87 47.538 C 360.193 48.219 358.19 48.56 355.86 48.56 C 354.601 48.56 352.755 48.391 351.73 48.098 L 351.73 44.934 C 352.814 45.315 354.388 45.549 355.794 45.549 C 358.534 45.549 360.687 44.96 362.254 43.781 C 363.822 42.601 364.95 40.997 365.638 38.969 C 366.327 36.94 366.715 34.658 366.803 32.124 L 366.539 32.124 C 366.1 32.827 365.525 33.475 364.814 34.069 C 364.104 34.662 363.243 35.138 362.232 35.497 C 361.222 35.856 360.043 36.035 358.695 36.035 C 356.835 36.035 355.212 35.654 353.828 34.893 C 352.444 34.131 351.367 33.025 350.598 31.575 C 349.829 30.125 349.444 28.374 349.444 26.323 C 349.444 24.111 349.866 22.196 350.708 20.577 C 351.55 18.959 352.733 17.71 354.256 16.831 C 355.78 15.952 357.574 15.513 359.64 15.513 C 361.222 15.513 362.672 15.813 363.99 16.414 C 365.309 17.014 366.455 17.911 367.429 19.105 C 368.403 20.299 369.158 21.775 369.692 23.533 C 370.227 25.291 370.494 27.334 370.494 29.663 Z M 359.64 18.611 C 355.743 18.611 353.092 21.152 353.092 26.279 C 353.092 30.527 355.128 33.157 359.464 33.157 C 360.958 33.157 362.251 32.856 363.342 32.256 C 364.433 31.655 365.276 30.894 365.869 29.971 C 366.462 29.048 366.759 28.103 366.759 27.136 C 366.759 26.169 366.616 25.188 366.33 24.192 C 366.045 23.196 365.609 22.277 365.023 21.434 C 364.437 20.592 363.697 19.911 362.804 19.391 C 361.91 18.871 360.856 18.611 359.64 18.611 Z M 380.055 48.098 L 393.239 19.314 L 375.727 19.314 L 375.727 15.974 L 397.15 15.974 L 397.15 18.787 L 384.054 48.098 Z M 428.023 48.098 L 424.464 48.098 L 424.464 25.334 C 424.464 24.47 424.468 23.727 424.475 23.104 C 424.482 22.482 424.497 21.91 424.519 21.39 C 424.541 20.87 424.574 20.339 424.618 19.797 C 423.71 20.735 423.043 21.248 421.871 22.214 L 418.202 25.159 L 416.29 22.676 L 424.991 15.974 L 428.023 15.974 Z M 454.525 48.098 L 450.966 48.098 L 450.966 25.334 C 450.966 24.47 450.969 23.727 450.977 23.104 C 450.984 22.482 450.999 21.91 451.021 21.39 C 451.043 20.87 451.076 20.339 451.12 19.797 C 450.211 20.735 449.545 21.248 448.373 22.214 L 444.704 25.159 L 442.792 22.676 L 451.493 15.974 L 454.525 15.974 Z M 488.674 31.992 C 488.674 34.6 488.476 36.929 488.08 38.979 C 487.685 41.03 487.062 42.766 486.213 44.187 C 485.363 45.608 484.265 46.688 482.917 47.428 C 481.569 48.168 479.951 48.538 478.061 48.538 C 475.673 48.538 473.699 47.886 472.139 46.582 C 470.579 45.278 469.415 43.392 468.646 40.924 C 467.877 38.456 467.492 35.479 467.492 31.992 C 467.492 28.564 467.84 25.616 468.536 23.148 C 469.232 20.68 470.356 18.783 471.909 17.457 C 473.461 16.132 475.512 15.469 478.061 15.469 C 480.478 15.469 482.47 16.124 484.038 17.435 C 485.605 18.746 486.769 20.636 487.531 23.104 C 488.293 25.573 488.674 28.535 488.674 31.992 Z M 471.162 31.992 C 471.162 34.98 471.389 37.471 471.843 39.463 C 472.297 41.455 473.033 42.946 474.051 43.934 C 475.069 44.923 476.406 45.417 478.061 45.417 C 479.716 45.417 481.053 44.927 482.071 43.945 C 483.089 42.964 483.829 41.477 484.29 39.485 C 484.752 37.493 484.982 34.995 484.982 31.992 C 484.982 29.048 484.755 26.583 484.301 24.598 C 483.847 22.614 483.115 21.119 482.104 20.116 C 481.093 19.113 479.746 18.611 478.061 18.611 C 476.376 18.611 475.029 19.113 474.018 20.116 C 473.007 21.119 472.278 22.614 471.832 24.598 C 471.385 26.583 471.162 29.048 471.162 31.992 Z M 525.853 23.467 C 525.853 24.902 525.575 26.147 525.018 27.202 C 524.462 28.257 523.685 29.117 522.689 29.784 C 521.693 30.45 520.521 30.916 519.174 31.179 L 519.174 31.355 C 524.271 32 526.842 34.724 526.842 39.001 C 526.842 40.862 526.406 42.51 525.535 43.945 C 524.663 45.381 523.33 46.505 521.536 47.318 C 519.741 48.131 517.445 48.538 514.647 48.538 C 511.249 48.538 508.429 48.04 505.792 46.78 L 505.792 43.352 C 508.458 44.67 511.762 45.461 514.691 45.461 C 520.551 45.461 522.997 42.979 522.997 38.936 C 522.997 37.544 522.634 36.42 521.909 35.563 C 521.184 34.706 520.144 34.076 518.789 33.673 C 517.434 33.27 515.805 33.069 513.9 33.069 L 510.692 33.069 L 510.692 29.949 L 513.922 29.949 C 515.665 29.949 517.145 29.692 518.361 29.18 C 519.577 28.667 520.503 27.946 521.14 27.015 C 521.778 26.085 522.096 24.983 522.096 23.708 C 522.096 20.457 519.774 18.611 516.054 18.611 C 514.911 18.611 513.871 18.728 512.934 18.962 C 511.996 19.197 511.117 19.519 510.297 19.929 C 509.477 20.339 508.656 20.815 507.836 21.357 L 505.99 18.853 C 508.334 17.036 511.732 15.513 516.01 15.513 C 522.572 15.513 525.853 18.838 525.853 23.467 Z M 553.542 48.098 L 532.492 48.098 L 532.492 45.044 L 541.083 36.321 C 542.68 34.709 544.024 33.274 545.115 32.014 C 546.207 30.754 547.038 29.513 547.609 28.29 C 548.181 27.067 548.466 25.723 548.466 24.258 C 548.466 20.625 546.115 18.655 542.599 18.655 C 539.523 18.655 537.355 19.753 534.865 21.687 L 532.91 19.226 C 533.759 18.508 534.686 17.871 535.689 17.314 C 536.693 16.758 537.769 16.318 538.919 15.996 C 540.069 15.674 541.296 15.513 542.599 15.513 C 544.577 15.513 546.284 15.857 547.719 16.545 C 549.155 17.234 550.264 18.215 551.048 19.49 C 551.832 20.764 552.224 22.28 552.224 24.038 C 552.224 25.737 551.887 27.316 551.213 28.773 C 550.539 30.231 549.594 31.674 548.378 33.102 C 547.162 34.53 545.742 36.042 544.116 37.639 L 537.128 44.604 L 537.128 44.758 L 553.542 44.758 Z M 575.187 48.098 L 588.371 19.314 L 570.858 19.314 L 570.858 15.974 L 592.282 15.974 L 592.282 18.787 L 579.186 48.098 Z M 597.866 34.365 C 597.866 32.432 598.001 30.542 598.272 28.696 C 598.543 26.851 599.001 25.133 599.645 23.544 C 600.29 21.954 601.169 20.559 602.282 19.358 C 603.395 18.157 604.783 17.216 606.446 16.534 C 608.109 15.853 610.104 15.513 612.433 15.513 C 613.752 15.513 615.458 15.637 616.454 15.93 L 616.454 19.072 C 615.37 18.691 613.906 18.523 612.499 18.523 C 609.775 18.523 607.632 19.116 606.072 20.303 C 604.512 21.489 603.388 23.097 602.7 25.126 C 602.011 27.155 601.616 29.436 601.513 31.97 L 601.755 31.97 C 602.209 31.238 602.787 30.575 603.491 29.982 C 604.194 29.388 605.047 28.916 606.05 28.564 C 607.054 28.213 608.222 28.037 609.555 28.037 C 611.43 28.037 613.067 28.418 614.466 29.18 C 615.865 29.941 616.949 31.047 617.718 32.498 C 618.487 33.948 618.871 35.706 618.871 37.771 C 618.871 39.983 618.461 41.895 617.641 43.506 C 616.821 45.117 615.652 46.359 614.136 47.23 C 612.62 48.102 610.815 48.538 608.72 48.538 C 607.153 48.538 605.71 48.237 604.391 47.637 C 603.073 47.036 601.927 46.143 600.953 44.956 C 599.979 43.77 599.221 42.294 598.679 40.529 C 598.137 38.763 597.866 36.709 597.866 34.365 Z M 608.676 45.461 C 612.661 45.461 615.268 42.927 615.268 37.771 C 615.268 33.552 613.137 30.916 608.83 30.916 C 607.365 30.916 606.091 31.219 605.007 31.827 C 603.923 32.435 603.08 33.201 602.48 34.124 C 601.879 35.046 601.579 35.984 601.579 36.936 C 601.579 37.903 601.722 38.884 602.007 39.88 C 602.293 40.876 602.729 41.799 603.315 42.649 C 603.901 43.499 604.641 44.18 605.534 44.692 C 606.428 45.205 607.475 45.461 608.676 45.461 Z M 649.657 48.098 L 646.098 48.098 L 646.098 25.334 C 646.098 24.47 646.101 23.727 646.109 23.104 C 646.116 22.482 646.131 21.91 646.153 21.39 C 646.174 20.87 646.207 20.339 646.251 19.797 C 645.343 20.735 644.677 21.248 643.505 22.214 L 639.835 25.159 L 637.924 22.676 L 646.625 15.974 L 649.657 15.974 Z M 683.806 31.992 C 683.806 34.6 683.608 36.929 683.212 38.979 C 682.817 41.03 682.194 42.766 681.345 44.187 C 680.495 45.608 679.396 46.688 678.049 47.428 C 676.701 48.168 675.082 48.538 673.193 48.538 C 670.805 48.538 668.831 47.886 667.271 46.582 C 665.711 45.278 664.547 43.392 663.777 40.924 C 663.008 38.456 662.624 35.479 662.624 31.992 C 662.624 28.564 662.972 25.616 663.668 23.148 C 664.363 20.68 665.488 18.783 667.04 17.457 C 668.593 16.132 670.644 15.469 673.193 15.469 C 675.61 15.469 677.602 16.124 679.169 17.435 C 680.737 18.746 681.901 20.636 682.663 23.104 C 683.425 25.573 683.806 28.535 683.806 31.992 Z M 666.293 31.992 C 666.293 34.98 666.52 37.471 666.974 39.463 C 667.429 41.455 668.165 42.946 669.183 43.934 C 670.201 44.923 671.537 45.417 673.193 45.417 C 674.848 45.417 676.185 44.927 677.203 43.945 C 678.221 42.964 678.961 41.477 679.422 39.485 C 679.883 37.493 680.114 34.995 680.114 31.992 C 680.114 29.048 679.887 26.583 679.433 24.598 C 678.979 22.614 678.246 21.119 677.236 20.116 C 676.225 19.113 674.877 18.611 673.193 18.611 C 671.508 18.611 670.161 19.113 669.15 20.116 C 668.139 21.119 667.41 22.614 666.964 24.598 C 666.517 26.583 666.293 29.048 666.293 31.992 Z M 699.233 28.455 C 701.416 28.455 703.313 28.824 704.924 29.564 C 706.535 30.304 707.784 31.377 708.67 32.783 C 709.557 34.189 710 35.896 710 37.903 C 710 40.1 709.524 41.993 708.572 43.583 C 707.619 45.172 706.25 46.395 704.463 47.252 C 702.676 48.109 700.537 48.538 698.047 48.538 C 694.707 48.538 691.726 47.952 689.763 46.78 L 689.763 43.308 C 691.902 44.597 695.22 45.417 698.091 45.417 C 699.717 45.417 701.141 45.157 702.364 44.637 C 703.587 44.117 704.54 43.326 705.221 42.264 C 705.902 41.202 706.242 39.866 706.242 38.254 C 706.242 33.977 703.723 31.553 698.069 31.553 C 696.252 31.553 693.806 31.904 692.4 32.256 L 690.554 31.047 L 691.784 15.974 L 707.759 15.974 L 707.759 19.314 L 694.905 19.314 L 694.092 29.004 C 695.205 28.77 697.007 28.455 699.233 28.455 Z M 741.203 48.098 L 737.643 48.098 L 737.643 25.334 C 737.643 24.47 737.647 23.727 737.654 23.104 C 737.662 22.482 737.676 21.91 737.698 21.39 C 737.72 20.87 737.753 20.339 737.797 19.797 C 736.889 20.735 736.223 21.248 735.051 22.214 L 731.381 25.159 L 729.47 22.676 L 738.171 15.974 L 741.203 15.974 Z M 775.351 31.992 C 775.351 34.6 775.154 36.929 774.758 38.979 C 774.363 41.03 773.74 42.766 772.89 44.187 C 772.041 45.608 770.942 46.688 769.595 47.428 C 768.247 48.168 766.628 48.538 764.739 48.538 C 762.351 48.538 760.377 47.886 758.817 46.582 C 757.257 45.278 756.092 43.392 755.323 40.924 C 754.554 38.456 754.17 35.479 754.17 31.992 C 754.17 28.564 754.518 25.616 755.213 23.148 C 755.909 20.68 757.034 18.783 758.586 17.457 C 760.139 16.132 762.19 15.469 764.739 15.469 C 767.156 15.469 769.148 16.124 770.715 17.435 C 772.283 18.746 773.447 20.636 774.209 23.104 C 774.971 25.573 775.351 28.535 775.351 31.992 Z M 757.839 31.992 C 757.839 34.98 758.066 37.471 758.52 39.463 C 758.974 41.455 759.711 42.946 760.729 43.934 C 761.747 44.923 763.083 45.417 764.739 45.417 C 766.394 45.417 767.731 44.927 768.749 43.945 C 769.767 42.964 770.506 41.477 770.968 39.485 C 771.429 37.493 771.66 34.995 771.66 31.992 C 771.66 29.048 771.433 26.583 770.979 24.598 C 770.525 22.614 769.792 21.119 768.782 20.116 C 767.771 19.113 766.423 18.611 764.739 18.611 C 763.054 18.611 761.706 19.113 760.696 20.116 C 759.685 21.119 758.956 22.614 758.509 24.598 C 758.063 26.583 757.839 29.048 757.839 31.992 Z M 801.721 29.663 C 801.721 31.611 801.586 33.508 801.315 35.354 C 801.044 37.2 800.583 38.921 799.931 40.518 C 799.279 42.114 798.396 43.513 797.283 44.714 C 796.17 45.916 794.774 46.857 793.097 47.538 C 791.42 48.219 789.417 48.56 787.088 48.56 C 785.828 48.56 783.982 48.391 782.957 48.098 L 782.957 44.934 C 784.041 45.315 785.615 45.549 787.022 45.549 C 789.761 45.549 791.914 44.96 793.482 43.781 C 795.049 42.601 796.177 40.997 796.865 38.969 C 797.554 36.94 797.942 34.658 798.03 32.124 L 797.766 32.124 C 797.327 32.827 796.752 33.475 796.042 34.069 C 795.331 34.662 794.47 35.138 793.46 35.497 C 792.449 35.856 791.27 36.035 789.922 36.035 C 788.062 36.035 786.439 35.654 785.055 34.893 C 783.671 34.131 782.594 33.025 781.825 31.575 C 781.056 30.125 780.672 28.374 780.672 26.323 C 780.672 24.111 781.093 22.196 781.935 20.577 C 782.777 18.959 783.96 17.71 785.484 16.831 C 787.007 15.952 788.802 15.513 790.867 15.513 C 792.449 15.513 793.899 15.813 795.218 16.414 C 796.536 17.014 797.682 17.911 798.656 19.105 C 799.63 20.299 800.385 21.775 800.919 23.533 C 801.454 25.291 801.721 27.334 801.721 29.663 Z M 790.867 18.611 C 786.97 18.611 784.319 21.152 784.319 26.279 C 784.319 30.527 786.355 33.157 790.691 33.157 C 792.185 33.157 793.478 32.856 794.569 32.256 C 795.661 31.655 796.503 30.894 797.096 29.971 C 797.689 29.048 797.986 28.103 797.986 27.136 C 797.986 26.169 797.843 25.188 797.558 24.192 C 797.272 23.196 796.836 22.277 796.25 21.434 C 795.664 20.592 794.925 19.911 794.031 19.391 C 793.137 18.871 792.083 18.611 790.867 18.611 Z M 840.263 29.663 C 840.263 31.611 840.128 33.508 839.857 35.354 C 839.586 37.2 839.125 38.921 838.473 40.518 C 837.821 42.114 836.938 43.513 835.825 44.714 C 834.712 45.916 833.316 46.857 831.639 47.538 C 829.962 48.219 827.959 48.56 825.63 48.56 C 824.37 48.56 822.524 48.391 821.499 48.098 L 821.499 44.934 C 822.583 45.315 824.158 45.549 825.564 45.549 C 828.303 45.549 830.456 44.96 832.024 43.781 C 833.591 42.601 834.719 40.997 835.408 38.969 C 836.096 36.94 836.484 34.658 836.572 32.124 L 836.308 32.124 C 835.869 32.827 835.294 33.475 834.584 34.069 C 833.873 34.662 833.013 35.138 832.002 35.497 C 830.991 35.856 829.812 36.035 828.464 36.035 C 826.604 36.035 824.982 35.654 823.597 34.893 C 822.213 34.131 821.136 33.025 820.367 31.575 C 819.598 30.125 819.214 28.374 819.214 26.323 C 819.214 24.111 819.635 22.196 820.477 20.577 C 821.319 18.959 822.502 17.71 824.026 16.831 C 825.549 15.952 827.344 15.513 829.409 15.513 C 830.991 15.513 832.441 15.813 833.76 16.414 C 835.078 17.014 836.224 17.911 837.198 19.105 C 838.172 20.299 838.927 21.775 839.461 23.533 C 839.996 25.291 840.263 27.334 840.263 29.663 Z M 829.409 18.611 C 825.513 18.611 822.861 21.152 822.861 26.279 C 822.861 30.527 824.897 33.157 829.233 33.157 C 830.727 33.157 832.02 32.856 833.111 32.256 C 834.203 31.655 835.045 30.894 835.638 29.971 C 836.232 29.048 836.528 28.103 836.528 27.136 C 836.528 26.169 836.385 25.188 836.1 24.192 C 835.814 23.196 835.378 22.277 834.792 21.434 C 834.206 20.592 833.467 19.911 832.573 19.391 C 831.68 18.871 830.625 18.611 829.409 18.611 Z M 856.284 15.513 C 858.145 15.513 859.793 15.806 861.228 16.392 C 862.664 16.978 863.788 17.838 864.601 18.973 C 865.414 20.109 865.821 21.504 865.821 23.159 C 865.821 24.463 865.539 25.602 864.975 26.576 C 864.411 27.55 863.653 28.4 862.7 29.125 C 861.748 29.85 860.694 30.498 859.536 31.069 C 860.913 31.699 862.155 32.41 863.261 33.201 C 864.367 33.992 865.242 34.922 865.886 35.991 C 866.531 37.061 866.853 38.328 866.853 39.792 C 866.853 41.594 866.417 43.151 865.546 44.462 C 864.674 45.773 863.455 46.78 861.887 47.483 C 860.32 48.186 858.482 48.538 856.372 48.538 C 854.102 48.538 852.172 48.197 850.583 47.516 C 848.993 46.835 847.785 45.853 846.957 44.572 C 846.129 43.29 845.716 41.748 845.716 39.946 C 845.716 38.467 846.031 37.181 846.66 36.09 C 847.29 34.999 848.125 34.058 849.165 33.267 C 850.205 32.476 851.341 31.809 852.571 31.267 C 851.502 30.681 850.524 30.015 849.638 29.268 C 848.751 28.521 848.048 27.645 847.528 26.642 C 847.008 25.638 846.748 24.47 846.748 23.137 C 846.748 21.511 847.162 20.131 847.99 18.995 C 848.817 17.86 849.953 16.996 851.396 16.403 C 852.838 15.809 854.468 15.513 856.284 15.513 Z M 849.297 39.968 C 849.297 43.25 851.597 45.615 856.284 45.615 C 860.738 45.615 863.272 43.293 863.272 39.836 C 863.272 38.767 862.993 37.826 862.437 37.013 C 861.88 36.2 861.089 35.471 860.064 34.827 C 859.038 34.182 857.83 33.596 856.438 33.069 L 855.647 32.783 C 854.3 33.34 853.153 33.959 852.208 34.64 C 851.264 35.321 850.542 36.094 850.044 36.958 C 849.546 37.822 849.297 38.826 849.297 39.968 Z M 856.24 18.501 C 852.783 18.501 850.352 20.208 850.352 23.313 C 850.352 24.426 850.619 25.367 851.154 26.136 C 851.688 26.906 852.417 27.565 853.34 28.114 C 854.263 28.663 855.296 29.172 856.438 29.641 C 857.552 29.172 858.54 28.656 859.405 28.092 C 860.269 27.528 860.95 26.858 861.448 26.082 C 861.946 25.305 862.195 24.375 862.195 23.291 C 862.195 20.186 859.815 18.501 856.24 18.501 Z M 897.793 48.098 L 894.233 48.098 L 894.233 25.334 C 894.233 24.47 894.237 23.727 894.244 23.104 C 894.252 22.482 894.266 21.91 894.288 21.39 C 894.31 20.87 894.343 20.339 894.387 19.797 C 893.479 20.735 892.812 21.248 891.64 22.214 L 887.971 25.159 L 886.059 22.676 L 894.761 15.974 L 897.793 15.974 Z M 924.295 48.098 L 920.735 48.098 L 920.735 25.334 C 920.735 24.47 920.739 23.727 920.746 23.104 C 920.753 22.482 920.768 21.91 920.79 21.39 C 920.812 20.87 920.845 20.339 920.889 19.797 C 919.981 20.735 919.314 21.248 918.142 22.214 L 914.473 25.159 L 912.561 22.676 L 921.262 15.974 L 924.295 15.974 Z M 941.37 48.098 L 954.554 19.314 L 937.042 19.314 L 937.042 15.974 L 958.465 15.974 L 958.465 18.787 L 945.369 48.098 Z M 989.339 48.098 L 985.779 48.098 L 985.779 25.334 C 985.779 24.47 985.783 23.727 985.79 23.104 C 985.797 22.482 985.812 21.91 985.834 21.39 C 985.856 20.87 985.889 20.339 985.933 19.797 C 985.025 20.735 984.358 21.248 983.186 22.214 L 979.517 25.159 L 977.605 22.676 L 986.306 15.974 L 989.339 15.974 Z M 1022.125 23.467 C 1022.125 24.902 1021.846 26.147 1021.29 27.202 C 1020.733 28.257 1019.957 29.117 1018.961 29.784 C 1017.965 30.45 1016.793 30.916 1015.445 31.179 L 1015.445 31.355 C 1020.543 32 1023.113 34.724 1023.113 39.001 C 1023.113 40.862 1022.678 42.51 1021.806 43.945 C 1020.935 45.381 1019.602 46.505 1017.807 47.318 C 1016.013 48.131 1013.716 48.538 1010.919 48.538 C 1007.52 48.538 1004.7 48.04 1002.064 46.78 L 1002.064 43.352 C 1004.73 44.67 1008.033 45.461 1010.963 45.461 C 1016.822 45.461 1019.268 42.979 1019.268 38.936 C 1019.268 37.544 1018.906 36.42 1018.181 35.563 C 1017.456 34.706 1016.415 34.076 1015.06 33.673 C 1013.706 33.27 1012.076 33.069 1010.172 33.069 L 1006.964 33.069 L 1006.964 29.949 L 1010.194 29.949 C 1011.937 29.949 1013.416 29.692 1014.632 29.18 C 1015.848 28.667 1016.774 27.946 1017.412 27.015 C 1018.049 26.085 1018.367 24.983 1018.367 23.708 C 1018.367 20.457 1016.046 18.611 1012.325 18.611 C 1011.182 18.611 1010.142 18.728 1009.205 18.962 C 1008.267 19.197 1007.388 19.519 1006.568 19.929 C 1005.748 20.339 1004.927 20.815 1004.107 21.357 L 1002.261 18.853 C 1004.605 17.036 1008.004 15.513 1012.281 15.513 C 1018.843 15.513 1022.125 18.838 1022.125 23.467 Z M 1054.383 48.098 L 1050.823 48.098 L 1050.823 25.334 C 1050.823 24.47 1050.827 23.727 1050.834 23.104 C 1050.841 22.482 1050.856 21.91 1050.878 21.39 C 1050.9 20.87 1050.933 20.339 1050.977 19.797 C 1050.069 20.735 1049.402 21.248 1048.23 22.214 L 1044.561 25.159 L 1042.649 22.676 L 1051.35 15.974 L 1054.383 15.974 Z M 1088.531 31.992 C 1088.531 34.6 1088.333 36.929 1087.938 38.979 C 1087.542 41.03 1086.92 42.766 1086.07 44.187 C 1085.22 45.608 1084.122 46.688 1082.774 47.428 C 1081.426 48.168 1079.808 48.538 1077.918 48.538 C 1075.53 48.538 1073.557 47.886 1071.996 46.582 C 1070.436 45.278 1069.272 43.392 1068.503 40.924 C 1067.734 38.456 1067.349 35.479 1067.349 31.992 C 1067.349 28.564 1067.697 25.616 1068.393 23.148 C 1069.089 20.68 1070.213 18.783 1071.766 17.457 C 1073.318 16.132 1075.369 15.469 1077.918 15.469 C 1080.335 15.469 1082.327 16.124 1083.895 17.435 C 1085.462 18.746 1086.627 20.636 1087.388 23.104 C 1088.15 25.573 1088.531 28.535 1088.531 31.992 Z M 1071.019 31.992 C 1071.019 34.98 1071.246 37.471 1071.7 39.463 C 1072.154 41.455 1072.89 42.946 1073.908 43.934 C 1074.926 44.923 1076.263 45.417 1077.918 45.417 C 1079.573 45.417 1080.91 44.927 1081.928 43.945 C 1082.946 42.964 1083.686 41.477 1084.147 39.485 C 1084.609 37.493 1084.839 34.995 1084.839 31.992 C 1084.839 29.048 1084.612 26.583 1084.158 24.598 C 1083.704 22.614 1082.972 21.119 1081.961 20.116 C 1080.95 19.113 1079.603 18.611 1077.918 18.611 C 1076.234 18.611 1074.886 19.113 1073.875 20.116 C 1072.864 21.119 1072.136 22.614 1071.689 24.598 C 1071.242 26.583 1071.019 29.048 1071.019 31.992 Z " fill="#000000" shape-rendering="geometricPrecision" />
    </g>
  </g>
</svg>